<mxfile host="app.diagrams.net" modified="2024-01-24T09:22:57.269Z" agent="Mozilla/5.0 (Macintosh; Intel Mac OS X 10_15_7) AppleWebKit/605.1.15 (KHTML, like Gecko) Version/16.4 Safari/605.1.15" version="22.1.20" etag="zBb0zV_-8S9dBdEpzegn" type="github">
  <diagram name="第 1 页" id="BmHE3geYqzjr5zs9LSHD">
    <mxGraphModel>
      <root>
        <mxCell id="0" />
        <mxCell id="1" parent="0" />
      </root>
    </mxGraphModel>
  </diagram>
</mxfile>
